<svg width="47" height="56" viewBox="0 0 47 56" fill="none" xmlns="http://www.w3.org/2000/svg">
<path d="M23.5 5.83331C24.2791 5.83331 25.0263 6.20206 25.5771 6.85844C26.128 7.51482 26.4375 8.40506 26.4375 9.33331C26.4375 10.2616 26.128 11.1518 25.5771 11.8082C25.0263 12.4646 24.2791 12.8333 23.5 12.8333H13.7084C13.4487 12.8333 13.1996 12.9562 13.016 13.175C12.8323 13.3938 12.7292 13.6906 12.7292 14V42C12.7292 42.3094 12.8323 42.6061 13.016 42.8249C13.1996 43.0437 13.4487 43.1666 13.7084 43.1666H22.5209C23.2999 43.1666 24.0471 43.5354 24.598 44.1918C25.1489 44.8482 25.4584 45.7384 25.4584 46.6666C25.4584 47.5949 25.1489 48.4851 24.598 49.1415C24.0471 49.7979 23.2999 50.1666 22.5209 50.1666H13.7084C11.8905 50.1666 10.1471 49.3062 8.86173 47.7747C7.57632 46.2431 6.85419 44.1659 6.85419 42V14C6.85419 11.834 7.57632 9.75682 8.86173 8.22527C10.1471 6.69373 11.8905 5.83331 13.7084 5.83331H23.5ZM35.3675 18.9233L40.9076 25.5266C41.4577 26.1829 41.7667 27.0725 41.7667 28C41.7667 28.9275 41.4577 29.8171 40.9076 30.4733L35.3695 37.0766C34.8184 37.7332 34.071 38.1021 33.2917 38.1021C32.5124 38.1021 31.765 37.7332 31.2139 37.0766C30.6628 36.4201 30.3532 35.5295 30.3532 34.601C30.3532 33.6724 30.6628 32.7819 31.2139 32.1253L31.7387 31.5H23.5C22.7209 31.5 21.9738 31.1312 21.4229 30.4749C20.872 29.8185 20.5625 28.9282 20.5625 28C20.5625 27.0717 20.872 26.1815 21.4229 25.5251C21.9738 24.8687 22.7209 24.5 23.5 24.5H31.7387L31.2139 23.8746C30.9412 23.5495 30.7248 23.1636 30.5773 22.7389C30.4297 22.3142 30.3538 21.859 30.3539 21.3993C30.354 20.9397 30.4301 20.4845 30.5778 20.0599C30.7255 19.6352 30.942 19.2494 31.2149 18.9245C31.4877 18.5995 31.8116 18.3418 32.1681 18.166C32.5246 17.9902 32.9066 17.8997 33.2924 17.8998C33.6782 17.9 34.0602 17.9906 34.4166 18.1666C34.7729 18.3426 35.0968 18.6005 35.3695 18.9256L35.3675 18.9233Z" fill="white"/>
</svg>
