<svg width="33" height="31" viewBox="0 0 33 31" fill="none" xmlns="http://www.w3.org/2000/svg">
<path d="M23.5849 19.4969H22.0943L21.566 19.0183C23.479 16.9339 24.5304 14.2729 24.5283 11.5209C24.5283 9.24226 23.809 7.01482 22.4614 5.12022C21.1138 3.22562 19.1984 1.74897 16.9574 0.876979C14.7165 0.00499181 12.2505 -0.22316 9.87154 0.221375C7.49252 0.665911 5.30726 1.76317 3.59209 3.37439C1.87692 4.98561 0.708873 7.03843 0.235658 9.27326C-0.237557 11.5081 0.00531387 13.8246 0.933558 15.9297C1.8618 18.0349 3.43373 19.8342 5.45056 21.1001C7.46739 22.3661 9.83853 23.0417 12.2642 23.0417C15.3019 23.0417 18.0943 21.996 20.2453 20.259L20.7547 20.7553V22.1555L30.1887 31L33 28.3591L23.5849 19.4969ZM12.2642 19.4969C7.56604 19.4969 3.77359 15.9342 3.77359 11.5209C3.77359 7.10749 7.56604 3.54489 12.2642 3.54489C16.9623 3.54489 20.7547 7.10749 20.7547 11.5209C20.7547 15.9342 16.9623 19.4969 12.2642 19.4969Z" fill="white"/>
</svg>
