<svg width="50" height="50" viewBox="0 0 50 50" fill="none" xmlns="http://www.w3.org/2000/svg">
<path d="M49.1344 24.8574C49.1344 11.161 38.1038 0 24.5672 0C11.0307 0 0 11.161 0 24.8574C0 32.0661 3.0709 38.5539 7.93521 43.1028C7.93521 43.1276 7.93521 43.1276 7.91064 43.1525C8.15632 43.4011 8.45112 43.5999 8.6968 43.8236C8.8442 43.9479 8.96704 44.0722 9.11444 44.1716C9.55665 44.5445 10.048 44.8925 10.5148 45.2405C10.6867 45.3648 10.8341 45.4642 11.0061 45.5885C11.4729 45.9117 11.9642 46.2099 12.4801 46.4834C12.6521 46.5828 12.8487 46.7071 13.0206 46.8065C13.512 47.08 14.0279 47.3285 14.5684 47.5522C14.7649 47.6517 14.9614 47.7511 15.158 47.8257C15.6985 48.0494 16.2389 48.2483 16.7794 48.4223C16.9759 48.4968 17.1725 48.5714 17.369 48.6211C17.9586 48.7951 18.5483 48.9443 19.1379 49.0934C19.3098 49.1431 19.4818 49.1928 19.6783 49.2177C20.3662 49.3668 21.0541 49.4663 21.7666 49.5408C21.8648 49.5408 21.9631 49.5657 22.0614 49.5906C22.8966 49.6651 23.7319 49.7148 24.5672 49.7148C25.4025 49.7148 26.2378 49.6651 27.0485 49.5906C27.1468 49.5906 27.245 49.5657 27.3433 49.5408C28.0558 49.4663 28.7436 49.3668 29.4315 49.2177C29.6035 49.1928 29.7755 49.1183 29.972 49.0934C30.5616 48.9443 31.1758 48.82 31.7408 48.6211C31.9374 48.5465 32.1339 48.472 32.3305 48.4223C32.8709 48.2234 33.436 48.0494 33.9519 47.8257C34.1484 47.7511 34.345 47.6517 34.5415 47.5522C35.0574 47.3285 35.5733 47.08 36.0892 46.8065C36.2858 46.7071 36.4578 46.5828 36.6297 46.4834C37.1211 46.1851 37.6124 45.9117 38.1038 45.5885C38.2757 45.4891 38.4231 45.3648 38.5951 45.2405C39.0864 44.8925 39.5532 44.5445 39.9954 44.1716C40.1428 44.0474 40.2657 43.9231 40.4131 43.8236C40.6833 43.5999 40.9536 43.3762 41.1992 43.1525C41.1992 43.1276 41.1992 43.1276 41.1747 43.1028C46.0635 38.5539 49.1344 32.0661 49.1344 24.8574ZM36.7034 37.2116C30.0457 32.6875 19.1379 32.6875 12.431 37.2116C11.3501 37.9324 10.4656 38.7776 9.72862 39.6973C5.9944 35.8693 3.68508 30.6243 3.68508 24.8574C3.68508 13.1993 13.0452 3.72861 24.5672 3.72861C36.0892 3.72861 45.4494 13.1993 45.4494 24.8574C45.4494 30.6243 43.14 35.8693 39.4058 39.6973C38.6934 38.7776 37.7844 37.9324 36.7034 37.2116Z" fill="#E7E7E7"/>
<path d="M24.5671 12.2539C19.4817 12.2539 15.3544 16.43 15.3544 21.5755C15.3544 26.6215 19.2606 30.723 24.4442 30.8721H24.6653H24.8373H24.8865C29.849 30.6981 33.7552 26.6215 33.7798 21.5755C33.7798 16.43 29.6525 12.2539 24.5671 12.2539Z" fill="#E7E7E7"/>
</svg>
